<svg xmlns="http://www.w3.org/2000/svg" width="440" height="74" viewBox="0 0 1760 296"><path fill="#100690" d="m236.55235.335-177.196 135.857h-35.468l-23.598 23.653h59.066l177.196 135.82h59.108l-118.172-135.82h117.629v-23.653h-117.629L295.66035.335Z"/><path fill="#100690" d="M411.68365 110.2003v22.317h105.801v31.093h-105.801v22.607h116.266v35.806h-158.507V74.1383h158.406v36.062Zm137.282 111.823V74.1383h71.054l49.72 92.344 49.744-92.344h72.277v147.885h-42.322v-105.224h-1.768l-57.037 105.224h-41.745l-56.699-105.306h-1.043v105.306zm264.109 0V74.1383h124.568c31.014 0 45.992 13.492 45.992 41.325 0 15.871-6.413 25.602-20.29 31.25 17.522 3.132 25.141 14.055 25.141 35.164 0 28.531-13.753 40.146-44.391 40.146zm127.274-102.481c0-7.369-4.412-12.23-10.886-12.23h-74.145v24.407h74.145c7.057 0 10.886-4.274 10.886-12.177m4.551 55.285c0-7.928-4.551-12.996-11.628-12.996h-77.954v26.563h77.954c7.418 0 11.628-4.846 11.628-13.567m375.565-12.996-28.328-52.289-27.711 52.289zm-135.813 60.192 79.774-147.885h56.84l78.272 147.885h-48.999l-14.053-24.602h-88.943l-14.254 24.602zm436.413-111.02v36.153h80.439c11.809 0 15.218-5.499 15.218-19.488 0-11.39-4.373-16.665-15.218-16.665zm138.645 11.547c0 24.407-5.656 36.612-23.037 41.06 14.497 3.741 21.907 13.054 21.907 28.098v30.315h-42.218v-22.578c0-12.636-5.114-15.276-19.069-15.276h-76.228v37.854h-42.463V74.1383h124.409c41.862 0 56.699 9.963 56.699 48.412m-712.58-11.547v36.153h80.502c11.825 0 15.236-5.499 15.236-19.488 0-11.39-4.373-16.665-15.236-16.665zm138.685 11.547c0 24.407-5.658 36.612-22.998 41.06 14.435 3.741 21.835 13.054 21.835 28.098v30.315h-42.144v-22.578c0-12.636-5.132-15.276-19.067-15.276h-76.311v37.854h-42.4V74.1383h124.422c41.826 0 56.663 9.963 56.663 48.412m255.95-12.35v22.317h105.802v31.093h-105.802v22.607h116.187v35.806h-158.414V74.1383h158.377v36.062Z"/></svg>