<?xml version="1.0" encoding="UTF-8" standalone="no"?>
<svg
   xmlns:dc="http://purl.org/dc/elements/1.1/"
   xmlns:cc="http://creativecommons.org/ns#"
   xmlns:rdf="http://www.w3.org/1999/02/22-rdf-syntax-ns#"
   xmlns:svg="http://www.w3.org/2000/svg"
   xmlns="http://www.w3.org/2000/svg"
   viewBox="0 0 299.99999 44.803211"
   height="44.803211"
   width="300"
   xml:space="preserve"
   id="svg10"
   version="1.1"><metadata
     id="metadata16"><rdf:RDF><cc:Work
         rdf:about=""><dc:format>image/svg+xml</dc:format><dc:type
           rdf:resource="http://purl.org/dc/dcmitype/StillImage" /><dc:title></dc:title></cc:Work></rdf:RDF></metadata><defs
     id="defs14" /><g
     transform="matrix(1.3333333,0,0,-1.3333333,-527.02475,207.48414)"
     id="g18"><g
       transform="matrix(1.7841229,0,0,1.7841229,-309.93912,-95.671377)"
       id="g1031"><g
         id="g28"
         transform="matrix(1.4889585,0,0,1.4889585,451.10331,140.84483)"><path
           d="m 0,0 h -0.052 c 0.14,-3.245 4.268,-2.578 6.055,-6.225 H 6.061 C 5.921,-2.966 0.606,-1.035 0,0"
           style="fill:#5f636a;fill-opacity:1;fill-rule:nonzero;stroke:none"
           id="path30" /></g><g
         id="g32"
         transform="matrix(1.4889585,0,0,1.4889585,401.42094,131.08352)"><path
           d="m 0,0 h -4.132 v -1.426 h 1.438 v -4.49 h 1.881 v 4.49 h 1.72 z"
           style="fill:#5f636a;fill-opacity:1;fill-rule:evenodd;stroke:none"
           id="path34" /></g><g
         id="g36"
         transform="matrix(1.4889585,0,0,1.4889585,408.52744,124.55756)"><path
           d="m 0,0 h -1.987 v 0.673 h 1.955 v 1.472 h -1.94 v 0.813 h 1.94 V 4.382 H -3.803 V -1.566 H 0 Z"
           style="fill:#5f636a;fill-opacity:1;fill-rule:evenodd;stroke:none"
           id="path38" /></g><g
         id="g40"
         transform="matrix(1.4889585,0,0,1.4889585,417.12662,131.08352)"><path
           d="M 0,0 H -1.878 L -2.755,-1.222 -3.695,0 h -2.08 l 1.971,-2.911 -1.863,-3.005 h 1.786 l 1.047,1.486 1.064,-1.486 h 2.066 l -2.129,3.177 z"
           style="fill:#5f636a;fill-opacity:1;fill-rule:evenodd;stroke:none"
           id="path42" /></g><g
         id="g44"
         transform="matrix(1.4889585,0,0,1.4889585,424.76751,131.1532)"><path
           d="m 0,0 v -5.996 h 1.815 v 4.524 h 0.36 c 0.971,0.048 0.986,-1.722 -0.188,-1.707 -0.046,0 1.879,-2.831 1.879,-2.817 h 1.988 c -0.033,0 -1.707,2.724 -1.738,2.708 0.235,0.094 0.642,0.784 0.642,1.44 C 4.758,-0.955 3.913,0 2.678,0 Z"
           style="fill:#5f636a;fill-opacity:1;fill-rule:evenodd;stroke:none"
           id="path46" /></g><g
         id="g48"
         transform="matrix(1.4889585,0,0,1.4889585,438.63031,126.65431)"><path
           d="m 0,0 c 0,-0.813 -0.516,-1.361 -1.312,-1.361 -0.8,0 -1.317,0.548 -1.317,1.361 0,0.815 0.517,1.362 1.317,1.362 C -0.516,1.362 0,0.815 0,0 m 1.8,0 c 0,1.44 -1.063,3.083 -3.112,3.083 -2.052,0 -3.115,-1.627 -3.115,-3.083 0,-1.534 1.125,-3.081 3.115,-3.081 1.954,0 3.112,1.547 3.112,3.081"
           style="fill:#5f636a;fill-opacity:1;fill-rule:evenodd;stroke:none"
           id="path50" /></g><g
         id="g52"
         transform="matrix(1.4889585,0,0,1.4889585,449.67614,131.10734)"><path
           d="M 0,0 H -1.705 V -2.598 L -3.474,0 h -1.738 v -5.947 h 1.769 v 2.833 l 1.973,-2.833 h 1.486 z"
           style="fill:#5f636a;fill-opacity:1;fill-rule:evenodd;stroke:none"
           id="path54" /></g><g
         id="g56"
         transform="matrix(1.4889585,0,0,1.4889585,423.32337,131.10734)"><path
           d="m 0,0 h -4.132 v -1.41 h 1.441 v -4.506 h 1.877 v 4.506 h 1.737 z"
           style="fill:#5f636a;fill-opacity:1;fill-rule:evenodd;stroke:none"
           id="path58" /></g><g
         id="g60"
         transform="matrix(1.4889585,0,0,1.4889585,456.41651,125.46851)"><path
           d="M 0,0 1.441,2.706 2.862,0 Z M 2.059,3.579 C 0.752,5.968 -2.439,6.394 -3.023,7.34 h -0.06 C -2.63,4.907 -0.549,4.937 0.803,3.578 L -2.233,-2.16 h 1.187 l 0.643,1.25 h 3.67 l 0.642,-1.25 h 1.189 z"
           style="fill:#231f20;fill-opacity:1;fill-rule:nonzero;stroke:none"
           id="path62" /></g><g
         id="g64"
         transform="matrix(1.4889585,0,0,1.4889585,479.53899,125.46851)"><path
           d="M 0,0 1.438,2.706 2.863,0 Z M 2.058,3.579 H 0.802 L -2.234,-2.16 h 1.187 l 0.642,1.25 H 3.264 L 3.91,-2.16 H 5.096 L 2.081,3.539 Z"
           style="fill:#231f20;fill-opacity:1;fill-rule:nonzero;stroke:none"
           id="path66" /></g><g
         id="g68"
         transform="matrix(1.4889585,0,0,1.4889585,467.23469,123.99325)"><path
           d="m 0,0 -2.461,4.57 h -1.21 L -0.58,-1.169 H 0.578 L 3.668,4.57 H 2.461 Z"
           style="fill:#231f20;fill-opacity:1;fill-rule:nonzero;stroke:none"
           id="path70" /></g><path
         d="m 473.65746,122.25221 h 1.6051 v 8.54513 h -1.6051 z"
         style="fill:#231f20;fill-opacity:1;fill-rule:nonzero;stroke:none;stroke-width:1.48895848"
         id="path72" /><g
         id="g74"
         transform="matrix(1.4889585,0,0,1.4889585,485.65787,129.32878)"><path
           d="m 0,0 h 2.668 v -4.753 h 1.08 V 0 H 6.419 V 0.987 H 0 Z"
           style="fill:#231f20;fill-opacity:1;fill-rule:nonzero;stroke:none"
           id="path76" /></g><g
         id="g78"
         transform="matrix(1.4889585,0,0,1.4889585,507.85109,124.34985)"><path
           d="m 0,0 c -0.46,-0.377 -1.083,-0.568 -1.852,-0.568 -0.777,0 -1.403,0.19 -1.868,0.566 -0.457,0.369 -0.689,0.865 -0.689,1.472 0,0.583 0.237,1.074 0.705,1.456 0.473,0.385 1.097,0.581 1.852,0.581 0.687,0 1.273,-0.171 1.736,-0.51 C 0.423,2.602 0.685,2.103 0.685,1.47 0.685,0.868 0.454,0.374 0,0 m 0.639,3.737 c -0.669,0.512 -1.507,0.772 -2.491,0.772 -0.981,0 -1.823,-0.26 -2.502,-0.772 -0.778,-0.589 -1.173,-1.352 -1.173,-2.267 0,-0.933 0.391,-1.699 1.158,-2.277 0.668,-0.506 1.515,-0.764 2.517,-0.764 0.989,0 1.829,0.256 2.499,0.756 0.767,0.579 1.156,1.347 1.156,2.285 0,0.915 -0.392,1.678 -1.164,2.267"
           style="fill:#231f20;fill-opacity:1;fill-rule:nonzero;stroke:none"
           id="path80" /></g><g
         id="g82"
         transform="matrix(1.4889585,0,0,1.4889585,519.77586,130.79779)"><path
           d="M 0,0 V -4.466 L -4.158,0 h -1.26 v -5.739 h 1.08 v 4.464 l 4.155,-4.464 H 1.078 V 0 Z"
           style="fill:#231f20;fill-opacity:1;fill-rule:nonzero;stroke:none"
           id="path84" /></g><path
         d="m 496.60678,122.25221 h 1.60509 v 8.54513 h -1.60509 z"
         style="fill:#231f20;fill-opacity:1;fill-rule:nonzero;stroke:none;stroke-width:1.48895848"
         id="path86" /></g></g></svg>