<svg xmlns="http://www.w3.org/2000/svg" id="svg-acj-logo" data-name="svg-acj-logo" viewBox="0 0 184.95 73.7" fill="#787c83" role="img" aria-labelledby="svg-acj-logo-title" class="awx-svg--preprocessed"><defs></defs><g><path d="m134.28,46.47c-6.17,7.93-13.77,11.6-22.59,11.6-7.05,0-12.61-2.22-16.83-6.15-4.22-3.94-6.13-8.9-6.13-15.16s1.85-11.06,5.95-15c4.09-3.93,9.35-6.14,15.93-6.14,9.05,0,16.07,2.5,23.92,11.5l.5.59,14.27-6-.91-1.33C139.14,6.86,127.14,0,111.69,0c-11.86,0-21.79,3.83-29.51,11.37-6.77,6.6-10.21,15.14-10.21,25.39,0,1.3.08,2.58.2,3.85l11.87,23.45c.32.25.61.54.93.78,8.06,5.88,17.26,8.85,27.35,8.85,7.57,0,14.31-1.49,20.01-4.43,5.71-2.95,11.04-7.71,15.84-14.15l.31-.41-13.59-9.01-.59.76Z"></path><path d="m168.17,2.02v45.21c0,7.27-4.08,10.85-11.06,10.85-3.04,0-5.35-1.11-7.14-2.32l-.04.05-.3.4c-3.65,4.89-7.6,8.84-11.8,11.82,4.78,3.79,11.34,5.65,19.69,5.65,9.64,0,14.59-2.16,19.81-6.56,5.3-4.47,7.62-10.85,7.62-18.96V2.02h-16.79Z"></path></g><polygon points="35.35 2.24 0 71.58 19 71.58 24.72 59.97 53.19 59.97 46.12 45.41 31.91 45.41 42.42 24.09 42.64 24.09 66.28 71.58 85.69 71.58 50.34 2.24 35.35 2.24"></polygon><title id="svg-acj-logo-title">ACJ logo</title></svg>