<svg xmlns="http://www.w3.org/2000/svg" xmlns:xlink="http://www.w3.org/1999/xlink" width="344" height="96" viewBox="0 0 688 192"><g fill="#324b6b" fill-rule="evenodd"><path d="m210.699 191.117-14.81-68.441h-16.934l-45.529 68.441h17.527l33.039-50.149 4.829 23.271h-13.173l-8.938 13.57h25.122l2.776 13.308zM381.028 191.117l-14.81-68.441h-16.933l-45.53 68.441h17.528l33.039-50.149 4.829 23.271h-13.174l-8.937 13.57h25.121l2.777 13.308zM297.636 122.676l-20.317 68.417h17.076l20.297-68.417zM460.607 122.676l-20.317 68.417h17.076l20.297-68.417zM609.454 167.64l-19.745-44.964h-17.025l-20.328 68.417h17.056l13.497-45.203 19.585 45.203h17.052l20.328-68.417h-17.088zM450.762 122.676h-62.37l-4.173 14.117h22.732l-16.071 54.282h17.057l16.07-54.282h22.556zM227.5 122.676h-16.09l14.809 68.441h16.934l45.529-68.441h-17.527l-33.038 50.149zM534.35 156.941c-2.787 10.568-12.192 21.253-25.011 21.253-13.567 0-17.258-8.576-13.943-21.34 3.305-12.728 14.106-21.28 25.033-21.28 12.997 0 17.673 7.14 13.921 21.367zm-14.378-34.908c-20.036 0-35.667 13.553-41.158 34.802-5.419 20.969 7.654 34.901 30.284 34.901 23.401 0 38.042-17.226 41.889-34.758 5.189-23.658-7.666-34.945-31.015-34.945zM479.336 107.941l-2.767-13.282h-27.527l9.234-14.042h15.173l-5.3-25.539-34.828 52.863h-17.426l46.992-70.635h17.218l15.284 70.635zM275.058 107.941l-2.767-13.282h-27.527l9.234-14.042h15.172l-5.3-25.539-34.827 52.863h-17.426l46.992-70.635h17.218l15.284 70.635zM626.364 107.939l16.761-56.618h-23.711l4.144-14.013h64.311l-4.168 14.013h-23.526l-16.764 56.618zM384.635 109.062c-5.789 0-10.959-1.216-15.365-3.616-4.456-2.423-7.395-5.901-8.737-10.336l-.101-.334 13.251-6.908.148.357c.882 2.118 2.558 3.997 4.98 5.582 2.437 1.596 5.237 2.406 8.321 2.406 3.167 0 5.975-.725 8.344-2.153 2.363-1.422 3.752-3.249 4.245-5.585.428-2.031-.213-3.594-1.957-4.781-1.851-1.258-4.972-2.72-9.278-4.344-4.484-1.707-8.172-3.349-10.96-4.878-2.842-1.558-5.121-3.837-6.775-6.775-1.672-2.968-2.029-6.794-1.064-11.371.865-4.114 2.855-7.754 5.915-10.819 3.038-3.042 6.784-5.383 11.134-6.957a39.95 39.95 0 0 1 13.623-2.365c6.171 0 11.376 1.144 15.47 3.402 4.139 2.284 6.879 5.692 8.146 10.129l.094.329-13.249 6.908-.146-.363c-.822-2.043-2.362-3.83-4.577-5.312-2.23-1.489-4.885-2.243-7.89-2.243-3.011 0-5.658.705-7.867 2.095-2.203 1.386-3.499 3.127-3.962 5.322-.318 1.512-.038 2.786.858 3.895.932 1.16 2.211 2.132 3.801 2.889 1.62.775 4.021 1.778 7.137 2.982 4.355 1.564 7.941 3.114 10.667 4.61 2.769 1.522 4.988 3.71 6.597 6.504 1.627 2.83 2 6.405 1.109 10.628-1.364 6.481-4.997 11.679-10.797 15.451-5.766 3.75-12.871 5.651-21.115 5.651M321.144 109.062c-5.789 0-10.959-1.216-15.366-3.616-4.455-2.423-7.394-5.901-8.737-10.336l-.101-.334 13.252-6.907.148.356c.883 2.118 2.558 3.997 4.98 5.582 2.438 1.596 5.236 2.406 8.321 2.406 3.167 0 5.975-.725 8.344-2.153 2.363-1.421 3.751-3.249 4.244-5.585.428-2.031-.212-3.594-1.956-4.781-1.85-1.258-4.971-2.719-9.279-4.344-4.486-1.708-8.174-3.35-10.959-4.878-2.842-1.558-5.121-3.836-6.774-6.774-1.673-2.969-2.031-6.795-1.065-11.372.865-4.115 2.856-7.754 5.915-10.819 3.037-3.042 6.783-5.383 11.133-6.957a39.955 39.955 0 0 1 13.624-2.365c6.17 0 11.375 1.144 15.469 3.402 4.14 2.284 6.881 5.692 8.147 10.129l.094.329-13.249 6.908-.146-.363c-.821-2.043-2.362-3.83-4.578-5.312-2.23-1.489-4.883-2.243-7.888-2.243-3.013 0-5.659.705-7.868 2.095-2.204 1.387-3.5 3.128-3.961 5.322-.319 1.512-.039 2.786.857 3.895.931 1.159 2.21 2.131 3.8 2.889 1.62.775 4.021 1.778 7.137 2.982 4.354 1.564 7.94 3.114 10.667 4.61 2.77 1.521 4.99 3.71 6.598 6.504 1.626 2.831 2 6.406 1.109 10.628-1.365 6.481-4.998 11.68-10.797 15.451-5.766 3.75-12.871 5.651-21.115 5.651M202.293 72.618c-2.739 10.547-12.156 21.191-24.938 21.191h-12.944l12.598-42.437h11.65c13.009 0 17.432 6.62 13.634 21.246zm-8.527-35.323h-29.628l-20.973 70.657h32.478c32.478 0 40.747-25.334 43.181-35.329 3.202-13.152.231-21.651-4.103-26.918-4.166-5.063-9.855-8.41-20.955-8.41zM604.713 37.303h-17.005l-21.007 70.641h45.678l4.143-14.046h-28.577zM545.568 80.696c-1.224 4.614-3.015 7.873-5.636 10.257-2.77 2.522-6.483 3.8-11.039 3.8-4.389 0-7.325-1.22-8.729-3.624-1.42-2.432-1.61-5.802-.56-10.034l13.13-43.818h-17.045l-12.975 43.207c-2.475 9.342-1.499 16.464 2.901 21.168 4.338 4.644 11.066 6.999 19.999 6.999 8.792 0 16.665-2.319 23.401-6.893 6.271-4.255 10.573-10.888 13.536-20.875l12.947-43.606H558.47zM118.708.465C62.738 92.228.84 139.751.84 139.751c16.916 11.192 23.458 25.367 23.458 25.367l8.219-6.432c-2-3.751-7.357-12.088-15.914-18.938 16.65-14.822 52.489-49.691 89.159-102.448-3.458 29.476-4.732 69.186 1.278 100.667-14.115 5.365-50.459 24.994-63.634 53.15h12.566c20.407-35.643 61.824-46.77 61.824-46.77-12.7-74.115.912-143.882.912-143.882" /><path d="M72.776 107.254c1.805-1.713 6.749-2.374 9.302.011 2.85 2.66 2.136 5.717.192 7.93-2.83 3.225-13.364 10.722-16.127 12.426h-1.856c-.673-.887-4.658-7.172-5.48-10.121-.873-3.129-.718-7.074 2.767-9.9 3.509-2.868 7.473-2.732 11.202-.346M90.053 131.879c2.989-1.365 5.49-5.054 4.154-8.678-1.285-3.479-5.284-3.525-8.051-2.52-5.112 1.86-15.744 8.609-17.535 9.93l-.655 1.744c1.199 1.783 5.042 6.374 7.613 8.36 2.577 1.989 6.348 3.161 10.154 1.032 3.942-2.204 5.208-6.329 4.32-9.868M56.582 155.44c-1.815 1.701-6.786 2.359-9.352-.01-2.866-2.645-2.149-5.683-.193-7.88 2.844-3.205 13.435-10.655 16.212-12.347h1.869c.675.881 4.682 7.126 5.507 10.056.879 3.11.724 7.029-2.78 9.838-3.528 2.849-7.515 2.713-11.263.343M39.385 130.798c-2.989 1.366-5.49 5.054-4.154 8.679 1.285 3.48 5.283 3.525 8.051 2.52 5.112-1.861 15.743-8.61 17.534-9.931l.657-1.743c-1.2-1.783-5.042-6.374-7.615-8.361-2.576-1.989-6.346-3.161-10.153-1.03-3.942 2.203-5.208 6.327-4.32 9.866" /></g></svg>