<?xml version="1.0"?>
<svg xmlns="http://www.w3.org/2000/svg" width="881" height="768" viewBox="-1.42232436 -1.42232436 57.66229872 50.25546072">
<path d="m 25.0864,21.0275 0,-8.37875 13.6475,0 -4.93375,4.9725 c -2.10875,2.17 -3.30625,3.34625 -6.7225,3.40625 -0.025,0 -1.99125,0 -1.99125,0 m 8.38,8.38125 8.37875,0 0,-13.6475 -4.9725,4.93375 c -2.16875,2.10875 -3.34625,3.30625 -3.40625,6.72125 0,0.0262 0,1.9925 0,1.9925" style="fill:#d7083c" />
<path d="M 25.0864,8.37875 25.0864,0 51.48515,0 46.5514,4.9725 c -2.10875,2.16875 -3.305,3.34625 -6.7225,3.40625 -0.0238,0 -14.7425,0 -14.7425,0 m 21.02875,21.03 8.38,0 0,-26.49125 -4.97375,4.98 c -2.4225,2.3825 -3.34625,3.215 -3.40625,6.63125 0,0.025 0,14.88 0,14.88" style="fill:#0063be" />
<path d="m 23.29515,35.5775 c -0.11875,0.51875 -0.3325,1.25 -1.1975,1.5425 -0.19125,0.065 -0.485,0.11625 -0.74375,0.11625 -0.21625,0 -0.61625,-0.10375 -0.85375,-0.22625 -0.445,-0.2275 -0.87625,-0.57625 -1.17125,-1.2275 -0.24625,-0.5525 -0.3625,-1.32625 -0.33875,-1.965 0.0375,-0.63875 0.19125,-1.12375 0.3125,-1.44375 0.31125,-0.82125 0.94625,-1.365 1.7825,-1.425 1.79375,-0.13625 2.18125,1.11 2.23,1.61375 l 1.7575,0 c -0.0125,-0.455 -0.16,-1.68375 -1.385,-2.49875 -0.82625,-0.55 -1.7275,-0.62375 -2.36625,-0.62375 -2.3225,0 -3.3825,1.34625 -3.88625,3.0175 -0.1475,0.50375 -0.225,1.22625 -0.21375,1.59125 0.0188,0.58875 0.0975,1.19 0.2025,1.6075 0.45875,1.8125 1.9425,3.1825 3.82,3.15875 1.17625,-0.0137 2.09875,-0.39875 2.7025,-0.88875 0.66625,-0.54125 1.11875,-1.43875 1.13125,-2.34875 l -1.7825,0 m 3.47375,-1.03875 c 0,-0.39875 0.54,-1.2725 1.43,-1.2225 0.885,0.0512 1.2725,0.88375 1.2875,1.2225 l -2.7175,0 z m 4.57,1.3325 c 0.0375,-0.78375 -0.0863,-1.66375 -0.695,-2.615 -0.42125,-0.65125 -1.24125,-1.29 -2.5575,-1.29 -0.76875,0 -2.59375,0.12 -3.02875,2.67625 -0.0863,0.50625 -0.06,0.9425 -0.035,1.32875 0.0375,0.3975 0.1525,0.7825 0.19,0.8875 0.16,0.43875 0.61875,1.1175 1.2175,1.47625 0.47375,0.285 1.1375,0.48 1.795,0.48 1.18,0 2.6975,-0.7625 3.0825,-2.41875 l -1.77375,0 c -0.0875,0.33875 -0.47875,0.80875 -0.90125,0.8875 -0.61,0.11375 -1.2875,-0.0113 -1.6525,-0.47875 -0.2575,-0.33 -0.285,-0.63875 -0.2975,-0.93375 l 4.65625,0 m 11.52375,2.74375 1.73375,0 0,-3.86125 c 0,-0.65 0.36875,-1.1975 1.1575,-1.1975 0.77875,0 1.0875,0.5675 1.0875,1.19875 l 0,3.86 1.74625,0 0,-4.35125 c 0,-1.20625 -0.9175,-2.25125 -2.275,-2.25375 -0.6425,0 -1.34,0.27625 -1.705,0.85875 l -0.0412,-10e-4 -0.0438,-0.6875 -1.66,0 0,6.435 m -5.895,-2.2175 c 0.0775,0.42 0.565,1.7525 1.5525,2.19375 0.41,0.18375 1.05,0.26875 1.47125,0.26875 0.48125,0 1.03875,-0.0675 1.5025,-0.245 1.1275,-0.42875 1.4075,-1.435 1.4075,-2.085 0,-0.82 -0.63,-1.4475 -1.46625,-1.65625 l -2.205,-0.54875 c -0.65,-0.1625 -0.4525,-0.81125 -0.14125,-0.98 0.52125,-0.2775 1.015,-0.2125 1.40875,-0.0775 0.5775,0.2 0.6575,0.56875 0.6575,0.9175 l 1.52875,0 c 0,-0.4825 -0.13125,-1.23625 -0.9925,-1.77875 -0.59625,-0.37375 -1.1625,-0.53 -1.8825,-0.50625 -0.72,0.025 -1.39125,0.24 -1.77625,0.53 -0.41,0.3 -0.77125,0.82 -0.75875,1.675 0.0125,0.59125 0.5,1.3975 1.4075,1.61625 l 2.035,0.52 c 0.9675,0.24875 0.51625,1.47875 -0.7375,1.36625 -0.93625,-0.0838 -1.19375,-0.46125 -1.36375,-1.21 l -1.6475,0 m 15.87125,-0.695 c 0,0.72375 -0.15875,1.58625 -1.18875,1.7425 -0.745,0.12 -1.25625,-0.13 -1.355,-0.515 -0.15,-0.53125 0.2125,-0.95875 0.8475,-1.0775 0.38625,-0.0725 1.1475,-0.25 1.69625,-0.55875 l 0,0.40875 z m 1.935,2.91375 c 0,0 -0.25875,-0.32 -0.25625,-0.53 l 0,-3.83 c 0,-0.91375 -0.66125,-1.74625 -1.24,-1.985 -0.33375,-0.13875 -0.98625,-0.34 -1.65625,-0.34 -0.91875,0 -2.60375,0.27875 -2.65375,2.255 l 1.47625,0 c 0.02,-0.40875 0.25,-0.955 1.1275,-0.9775 0.77875,-0.02 1.14,0.38 1.2275,0.63875 0.0863,0.25625 -0.13,0.46125 -0.50875,0.56875 -0.415,0.115 -1.2075,0.2925 -1.60875,0.35375 -1.615,0.24625 -2.17375,1.22625 -2.1825,2.06 -0.0125,1.1575 1.40625,1.97125 2.47375,1.965 0.96625,-0.005 1.45625,-0.36375 1.855,-0.9625 0.0113,0.18 0.0513,0.62375 0.10875,0.78375 l 1.8375,0 M 31.1414,36.39775 c 0.0775,0.42 0.565,1.7525 1.55375,2.19375 0.40875,0.18375 1.04875,0.26875 1.47,0.26875 0.48125,0 1.03875,-0.0675 1.50375,-0.245 1.12625,-0.42875 1.40625,-1.435 1.40625,-2.085 0,-0.82 -0.63,-1.4475 -1.46625,-1.65625 l -2.205,-0.54875 c -0.65,-0.1625 -0.45125,-0.81125 -0.14125,-0.98 0.52125,-0.2775 1.015,-0.2125 1.40875,-0.0775 0.5775,0.2 0.6575,0.56875 0.6575,0.9175 l 1.52875,0 c 0,-0.4825 -0.13125,-1.23625 -0.9925,-1.77875 -0.59625,-0.37375 -1.1625,-0.53 -1.8825,-0.50625 -0.72,0.025 -1.39125,0.24 -1.77625,0.53 -0.41,0.3 -0.77,0.82 -0.7575,1.675 0.0112,0.59125 0.49875,1.3975 1.40625,1.61625 l 2.035,0.52 c 0.9675,0.24875 0.5175,1.47875 -0.7375,1.36625 -0.93625,-0.0838 -1.19375,-0.46125 -1.36375,-1.21 l -1.6475,0" style="fill:#000000" />
<path d="m 54.2464,42.68625 -0.92625,2.52 -0.845,-2.52 -0.565,0 1.09125,3.38375 -0.19625,0.5275 c -0.0638,0.1775 -0.17125,0.26625 -0.29875,0.2925 -0.12,0.025 -0.26,0 -0.39375,-0.0513 l 0,0.48875 c 0.07,0.045 0.165,0.0825 0.2925,0.0825 0.12625,0.006 0.2725,-0.0188 0.4375,-0.0888 0.185,-0.0825 0.36875,-0.26 0.46375,-0.53375 l 1.51125,-4.10125 -0.57125,0 m -5.5125,0 0,3.33375 0.53375,0 0,-1.77125 c -0.0137,-0.89625 0.46875,-1.175 0.91375,-1.175 0.36875,0 0.67375,0.215 0.66625,0.62875 l 0,2.3175 0.53375,0 0,-2.59125 c -0.07,-0.495 -0.3625,-0.66 -0.52625,-0.74875 -0.0838,-0.0388 -0.305,-0.0825 -0.54625,-0.0888 -0.2425,-0.006 -0.5025,0.0312 -0.66125,0.1525 -0.12625,0.0625 -0.26625,0.2025 -0.3675,0.36125 l -0.0125,0 0,-0.41875 -0.53375,0 m -1.4675,2.36875 c 0,0.1075 -0.35,0.67375 -1.0725,0.65375 -0.2925,-0.006 -0.5975,-0.15875 -0.585,-0.57125 0.006,-0.2475 0.2225,-0.40625 0.3175,-0.45 0.31125,-0.14 0.90875,-0.1275 1.34,-0.29875 l 0,0.66625 z m 0.5525,-1.765 c -0.0125,-0.33 -0.35625,-0.54625 -0.775,-0.64125 -0.20875,-0.0512 -0.39375,-0.0575 -0.57125,-0.0575 -0.305,0 -0.51375,0.0638 -0.685,0.14625 -0.35,0.165 -0.50875,0.46375 -0.55375,0.65375 l -0.0188,0.2925 0.50125,0 c 0.0138,-0.1525 0.0512,-0.61625 0.68,-0.61625 0.35625,0 0.81875,0.1075 0.86375,0.3425 l 0,0.39375 c 0,0.17875 -0.1975,0.24125 -0.2675,0.255 -0.31625,0.075 -0.6275,0.0188 -1.23125,0.19625 -0.3425,0.10125 -0.66,0.3175 -0.69875,0.87 -0.0437,0.65375 0.42,1.04125 1.1625,1.04125 0.43875,0 0.8,-0.28625 1.06,-0.4825 0.0187,0.2225 0.255,0.4825 0.495,0.4825 0.17875,0 0.28625,-0.0188 0.41375,-0.0575 l 0,-0.41875 c -0.0388,0.0187 -0.0825,0.0187 -0.12125,0.0187 -0.13375,0 -0.25375,-0.10125 -0.25375,-0.19625 l 0,-2.2225 m -4.0775,0.1075 c 0.4125,0.565 0.33,1.51125 0.0513,1.89875 -0.16625,0.235 -0.43875,0.33 -0.69875,0.32375 -0.26,-0.006 -0.515,-0.1275 -0.66,-0.3175 -0.17875,-0.24125 -0.46375,-1.12375 -0.0325,-1.8475 0.13375,-0.21625 0.38125,-0.34375 0.64125,-0.3625 0.26125,-0.0188 0.53375,0.0762 0.69875,0.305 z m -1.5625,4.0125 0,-1.745 0.0125,0 c 0.0387,0.0888 0.14,0.2025 0.2925,0.2975 0.14625,0.0962 0.4125,0.20375 0.72375,0.20375 0.31125,0 0.66625,-0.1025 0.9775,-0.43125 0.33125,-0.3375 0.48375,-0.96625 0.42625,-1.5625 -0.05,-0.61 -0.31125,-1.19375 -0.80625,-1.44125 -0.19125,-0.095 -0.4325,-0.14 -0.66625,-0.14 -0.23,0 -0.43875,0.045 -0.5725,0.1275 -0.2225,0.1325 -0.34875,0.2475 -0.44375,0.38625 l -0.0138,0 0,-0.41875 -0.4625,0 0,4.72375 0.5325,0 m -5.69125,-1.39 0.53375,0 0,-2.14625 c 0.0312,-0.4575 0.36125,-0.8 0.78125,-0.8 0.26625,0 0.57125,0.115 0.615,0.5525 l 0,2.39375 0.53375,0 0,-2.26 c 0.0437,-0.34375 0.2725,-0.68625 0.75625,-0.68625 0.33,0 0.57125,0.1275 0.64125,0.565 l 0,2.38125 0.5325,0 0,-2.60375 c 0,-0.305 -0.21,-0.6025 -0.425,-0.72375 -0.15875,-0.0887 -0.3875,-0.1075 -0.61625,-0.10125 -0.14625,0 -0.35,0.025 -0.48875,0.0888 -0.20375,0.0888 -0.31125,0.24125 -0.45125,0.41375 -0.1275,-0.21 -0.22875,-0.28625 -0.34875,-0.375 -0.17125,-0.1275 -0.35,-0.1275 -0.5525,-0.1275 -0.26,0 -0.47625,0.05 -0.62875,0.13375 -0.14625,0.0763 -0.26,0.26 -0.33625,0.38625 l -0.0125,0 0,-0.425 -0.53375,0 0,3.33375 m -1.2525,-1.645 c 0,0.54625 -0.25375,1.2575 -0.95875,1.2575 -0.69875,0 -0.95875,-0.71125 -0.95875,-1.2575 0,-0.545 0.26,-1.25 0.95875,-1.25 0.705,0 0.95875,0.705 0.95875,1.25 z m 0.54625,0 c 0,-1.485 -0.89625,-1.78375 -1.505,-1.78375 -0.61,0 -1.505,0.29875 -1.505,1.78375 0,1.48625 0.895,1.79125 1.505,1.79125 0.60875,0 1.505,-0.305 1.505,-1.79125 m -3.585,-1.555 c -0.27375,-0.94 -0.9075,-1.5175 -1.88625,-1.505 -0.5775,0.006 -1.085,0.28625 -1.2825,0.47625 -0.54,0.515 -0.73,1.295 -0.73625,1.95 -0.006,0.65375 0.19625,1.435 0.73625,1.94875 0.1975,0.19 0.705,0.47 1.2825,0.47625 1.05375,0.0125 1.77875,-0.78125 1.975,-1.84125 l -0.61,0 c -0.235,0.8825 -0.65375,1.3075 -1.3325,1.3075 -0.36875,0 -0.74375,-0.14625 -0.9975,-0.44375 -0.2725,-0.32375 -0.45625,-0.8825 -0.44375,-1.4475 -0.0125,-0.56625 0.17125,-1.12375 0.44375,-1.4475 0.25375,-0.29875 0.62875,-0.445 0.9975,-0.445 0.64125,0 1.03375,0.3875 1.2375,0.97125 l 0.61625,0 m -6.24125,0.86375 c 0,-0.74375 -0.51375,-1.13 -1.175,-1.13 -0.64125,0 -0.895,0.38125 -1.015,0.58375 l -0.0138,0 0,-0.495 -0.85,0 0,3.3775 0.88875,0 0,-1.93625 c 0,-0.515 0.305,-0.78125 0.69875,-0.78125 0.565,0 0.5775,0.41875 0.5775,0.66625 l 0,2.05125 0.88875,0 0,-2.33625 m -4.365,0.6475 c 0,0.4325 -0.1275,1.02875 -0.8125,1.02875 -0.68625,0 -0.8125,-0.59625 -0.8125,-1.02875 0,-0.43125 0.12625,-1.02875 0.8125,-1.02875 0.685,0 0.8125,0.5975 0.8125,1.02875 z m 0.915,0 c 0,-1.21875 -0.82,-1.7775 -1.7275,-1.7775 -0.90875,0 -1.7275,0.55875 -1.7275,1.7775 0,1.21875 0.81875,1.77875 1.7275,1.77875 0.9075,0 1.7275,-0.56 1.7275,-1.77875 m -5.4325,1.68875 0.88875,0 0,-1.75875 c 0,-0.375 0.1275,-0.80625 0.81875,-0.80625 0.0825,0 0.17875,0 0.255,0.0125 l 0,-0.90125 c -0.0575,-0.006 -0.115,-0.0125 -0.1725,-0.0125 -0.53875,0 -0.7425,0.33 -0.92625,0.6725 l -0.0125,0 0,-0.585 -0.85125,0 0,3.37875 m -0.9975,-4.2925 -0.88875,0 0,0.91375 -0.4575,0 0,0.63625 0.4575,0 0,2.05 c 0,0.43875 0.13875,0.73 0.9075,0.73 l 0.115,0 c 0.13875,0 0.27875,-0.006 0.41875,-0.0125 l 0,-0.6725 c -0.0638,0.006 -0.1275,0.0125 -0.18375,0.0125 -0.3625,0 -0.36875,-0.0763 -0.36875,-0.2725 l 0,-1.835 0.5525,0 0,-0.63625 -0.5525,0 0,-0.91375 m -2.55375,2.57125 1.11125,-1.6575 -1.0475,0 -0.55875,0.98375 -0.5725,-0.98375 -1.07875,0 1.105,1.6575 -1.15,1.72125 1.07375,0 0.58375,-1.01625 0.585,1.01625 1.0975,0 -1.14875,-1.72125 m -4.27,-0.30375 c 0.0513,-0.445 0.2725,-0.71125 0.6925,-0.71125 0.285,0 0.635,0.165 0.685,0.71125 l -1.3775,0 z m 1.34,1.035 c -0.07,0.24125 -0.32375,0.36875 -0.57125,0.36875 -0.7175,0 -0.76875,-0.57125 -0.79375,-0.82625 l 2.3175,0 0,-0.15875 c 0,-1.5425 -0.92125,-1.86 -1.5875,-1.86 -1.48,0 -1.62,1.30125 -1.62,1.7075 0,1.39125 0.73125,1.84875 1.68375,1.84875 0.5775,0 1.25,-0.2675 1.485,-1.08 l -0.91375,0 m -2.905,-2.7625 1.3775,0 0,-0.80625 -3.7075,0 0,0.80625 1.3775,0 0,3.7525 0.9525,0 0,-3.7525 m -5.64125,-0.1525 0.67875,2.02625 -1.43375,0 0.755,-2.02625 z m -0.915,2.52125 1.7725,0 0.47,1.38375 0.66625,0 -1.625,-4.62875 -0.73125,0 L 0,46.01985 l 0.635,0 0.495,-1.38375" style="fill:#000000" />
</svg>